<svg xmlns="http://www.w3.org/2000/svg" viewBox="0 0 48 48"><path d="M16.89 8.75h28.68a2.26 2.26 0 0 0 0-4.52H16.9a2.27 2.27 0 0 0-2.26 2.26 2.3 2.3 0 0 0 2.26 2.26zM45.57 21.68H16.9c-1.25 0-2.26 1.02-2.26 2.26s1.01 2.26 2.26 2.26h28.68a2.26 2.26 0 0 0 0-4.52zM45.57 39.13H16.9c-1.25 0-2.26 1.02-2.26 2.26s1.01 2.26 2.26 2.26h28.68a2.26 2.26 0 0 0 0-4.52zM12.03 6.5a4.57 4.57 0 1 1-9.15 0 4.57 4.57 0 0 1 9.15 0zM12.03 23.38a4.57 4.57 0 1 1-9.15 0 4.57 4.57 0 0 1 9.15 0zM12.03 41.11a4.57 4.57 0 1 1-9.15 0 4.57 4.57 0 0 1 9.15 0z"/></svg>