<svg viewBox="0 0 17 18" xmlns="http://www.w3.org/2000/svg">
<g clip-path="url(#clip0_11:12)"><path d="M8.40508 6.77128L6.90704 6.77667L6.90603 5.27223C6.9059 5.07618 6.67138 4.91834 6.38051 4.91708L6.36347 4.91706C6.07153 4.91686 5.8383 5.07546 5.83844 5.27151L5.83945 6.77594L4.33501 6.77493C4.1379 6.77373 3.98037 7.00802 3.98057 7.29996L3.98059 7.317C3.98185 7.60788 4.1397 7.84238 4.33574 7.84252L5.84017 7.84353L5.84119 9.34796C5.84132 9.54401 6.07477 9.70292 6.3667 9.70312L6.38375 9.70314C6.67568 9.70333 6.90891 9.54474 6.90878 9.34869L6.90776 7.84426L8.41113 7.84634C8.60824 7.8454 8.76578 7.61111 8.76558 7.3213L8.76556 7.30213C8.76003 7.00699 8.60219 6.77248 8.40508 6.77128Z" fill="black"/><path d="M12.9752 13.1452L10.1221 10.2921C10.0454 10.2153 10.0612 10.0544 9.96639 10.0213C10.6524 9.11181 10.9675 7.97546 10.8481 6.84162C10.7287 5.70777 10.1837 4.66084 9.3231 3.91211C8.46249 3.16338 7.35035 2.76859 6.2111 2.80742C5.07186 2.84626 3.99034 3.31583 3.18481 4.12136C2.37928 4.92689 1.90972 6.0084 1.87088 7.14764C1.83205 8.28689 2.22683 9.39903 2.97556 10.2596C3.72429 11.1203 4.77122 11.6652 5.90507 11.7846C7.03892 11.904 8.17527 11.5889 9.08479 10.9029C9.11788 10.9999 9.27982 10.983 9.35552 11.0587L12.1841 13.8873C12.4432 14.1463 12.7608 14.2957 13.0408 14.0583C13.3539 13.7922 13.261 13.4309 12.9752 13.1452ZM8.99463 9.93118C8.47599 10.4507 7.81469 10.8044 7.09442 10.9477C6.37415 11.0909 5.62729 11.0172 4.94834 10.736C4.26938 10.4547 3.68886 9.97841 3.28022 9.36745C2.87158 8.75649 2.6532 8.03828 2.6527 7.30372C2.65221 6.56915 2.86962 5.85124 3.27743 5.24083C3.68524 4.63042 4.26513 4.15495 4.9437 3.87458C5.62228 3.59421 6.36905 3.52153 7.08951 3.66577C7.80997 3.81 8.47174 4.16466 8.99109 4.68484C9.33652 5.02915 9.61069 5.43815 9.79787 5.88842C9.98506 6.33868 10.0816 6.82135 10.0819 7.30874C10.0822 7.79613 9.98637 8.27865 9.79979 8.72867C9.61322 9.17868 9.3396 9.58733 8.99463 9.93118Z"/>
</g><defs><clipPath id="clip0_11:12"><rect width="9" height="14" fill="white" transform="translate(0 7.29941) rotate(-45)"/></clipPath></defs></svg>
