<?xml version="1.0" encoding="utf-8"?>
<!-- Generator: Adobe Illustrator 19.2.1, SVG Export Plug-In . SVG Version: 6.00 Build 0)  -->
<!DOCTYPE svg PUBLIC "-//W3C//DTD SVG 1.1//EN" "http://www.w3.org/Graphics/SVG/1.1/DTD/svg11.dtd">
<svg version="1.1" id="Ebene_1" xmlns="http://www.w3.org/2000/svg" xmlns:xlink="http://www.w3.org/1999/xlink" x="0px" y="0px"
	 viewBox="0 0 176.7 49.2" style="enable-background:new 0 0 176.7 49.2;" xml:space="preserve">
<style type="text/css">
	.st0{fill-rule:evenodd;clip-rule:evenodd;fill:#F19014;}
	.st1{fill-rule:evenodd;clip-rule:evenodd;}
</style>
<g>
	<path class="st0" fill="#F19014" d="M79,38.9c-7.4,5.4-18,8.3-27.2,8.3c-12.9,0-24.4-4.8-33.2-12.7c-0.7-0.6-0.1-1.5,0.8-1
		c9.5,5.5,21.2,8.8,33.2,8.8c8.1,0,17.1-1.7,25.3-5.2C79.2,36.6,80.2,38,79,38.9L79,38.9z"/>
	<path class="st0" fill="#F19014" d="M82.1,35.4c-0.9-1.2-6.2-0.6-8.6-0.3c-0.7,0.1-0.8-0.5-0.2-1c4.2-3,11.1-2.1,11.9-1.1C86,34,85,40.9,81,44.2
		c-0.6,0.5-1.2,0.2-0.9-0.4C81,41.5,83,36.6,82.1,35.4L82.1,35.4z"/>
	<path class="st1" d="M73.6,13.2v-2.9c0-0.4,0.3-0.7,0.7-0.7l12.9,0c0.4,0,0.7,0.3,0.7,0.7l0,2.5c0,0.4-0.4,1-1,1.8l-6.7,9.5
		c2.5-0.1,5.1,0.3,7.3,1.6c0.5,0.3,0.6,0.7,0.7,1.1v3.1c0,0.4-0.5,0.9-0.9,0.7c-4-2.1-9.2-2.3-13.6,0c-0.4,0.2-0.9-0.2-0.9-0.7V27
		c0-0.5,0-1.3,0.5-2l7.7-11.1l-6.7,0C74,13.9,73.6,13.6,73.6,13.2L73.6,13.2z"/>
	<path class="st1" d="M26.7,31.1l-3.9,0c-0.4,0-0.7-0.3-0.7-0.7l0-20.1c0-0.4,0.3-0.7,0.8-0.7l3.6,0c0.4,0,0.7,0.3,0.7,0.7V13h0.1
		c1-2.5,2.7-3.7,5.2-3.7c2.4,0,4,1.2,5.1,3.7c1-2.5,3.1-3.7,5.4-3.7c1.6,0,3.4,0.7,4.5,2.2c1.2,1.7,1,4.1,1,6.3l0,12.7
		c0,0.4-0.3,0.7-0.8,0.7l-3.9,0c-0.4,0-0.7-0.3-0.7-0.7l0-10.7c0-0.8,0.1-3-0.1-3.8c-0.3-1.4-1.2-1.7-2.3-1.7c-1,0-1.9,0.6-2.3,1.6
		c-0.4,1-0.4,2.7-0.4,3.8l0,10.7c0,0.4-0.3,0.7-0.8,0.7l-3.9,0c-0.4,0-0.7-0.3-0.7-0.7l0-10.7c0-2.2,0.4-5.5-2.4-5.5
		c-2.8,0-2.7,3.2-2.7,5.5l0,10.7C27.4,30.8,27.1,31.1,26.7,31.1L26.7,31.1z"/>
	<path class="st1" d="M99.1,9.2c5.8,0,9,5,9,11.3c0,6.1-3.5,11-9,11c-5.7,0-8.8-5-8.8-11.2C90.3,14.1,93.4,9.2,99.1,9.2L99.1,9.2z
		 M99.1,13.3c-2.9,0-3.1,3.9-3.1,6.4s0,7.7,3,7.7c3,0,3.2-4.2,3.2-6.8c0-1.7-0.1-3.7-0.6-5.3C101.2,13.9,100.3,13.3,99.1,13.3
		L99.1,13.3z"/>
	<path class="st1" d="M115.6,31.1l-3.9,0c-0.4,0-0.7-0.3-0.7-0.7l0-20.1c0-0.4,0.4-0.7,0.8-0.7l3.6,0c0.3,0,0.6,0.3,0.7,0.6v3.1h0.1
		c1.1-2.7,2.6-4.1,5.3-4.1c1.8,0,3.5,0.6,4.6,2.4c1,1.6,1,4.3,1,6.3v12.6c0,0.4-0.4,0.6-0.8,0.6l-3.9,0c-0.4,0-0.7-0.3-0.7-0.6V19.6
		c0-2.2,0.3-5.4-2.4-5.4c-1,0-1.8,0.6-2.3,1.6c-0.5,1.2-0.6,2.5-0.6,3.8v10.8C116.3,30.8,116,31.1,115.6,31.1L115.6,31.1z"/>
	<path class="st1" d="M12,21.5c0,1.5,0,2.8-0.7,4.2c-0.6,1.1-1.6,1.8-2.7,1.8c-1.5,0-2.4-1.1-2.4-2.8c0-3.3,3-3.9,5.8-3.9V21.5
		L12,21.5z M16,31.1c-0.3,0.2-0.6,0.2-0.9,0.1c-1.3-1.1-1.5-1.6-2.2-2.6c-2.1,2.2-3.7,2.8-6.5,2.8c-3.3,0-5.9-2-5.9-6.1
		c0-3.2,1.7-5.3,4.2-6.4c2.1-0.9,5.1-1.1,7.4-1.4V17c0-0.9,0.1-2-0.5-2.8c-0.5-0.7-1.4-1-2.2-1c-1.5,0-2.8,0.8-3.1,2.4
		c-0.1,0.4-0.3,0.7-0.7,0.7l-3.8-0.4c-0.3-0.1-0.7-0.3-0.6-0.8c0.9-4.6,5-6,8.8-6c1.9,0,4.4,0.5,5.9,2c1.9,1.8,1.7,4.2,1.7,6.7v6.1
		c0,1.8,0.8,2.6,1.5,3.6c0.2,0.4,0.3,0.8,0,1C18.2,29.2,16.8,30.4,16,31.1L16,31.1L16,31.1z"/>
	<path class="st1" d="M63.4,21.5c0,1.5,0,2.8-0.7,4.2c-0.6,1.1-1.6,1.8-2.7,1.8c-1.5,0-2.4-1.1-2.4-2.8c0-3.3,3-3.9,5.8-3.9V21.5
		L63.4,21.5z M67.3,31.1c-0.3,0.2-0.6,0.2-0.9,0.1c-1.3-1.1-1.5-1.6-2.2-2.6c-2.1,2.2-3.7,2.8-6.5,2.8c-3.3,0-5.9-2-5.9-6.1
		c0-3.2,1.7-5.3,4.2-6.4c2.1-0.9,5.1-1.1,7.4-1.4V17c0-0.9,0.1-2-0.5-2.8c-0.5-0.7-1.4-1-2.2-1c-1.5,0-2.8,0.8-3.1,2.4
		c-0.1,0.4-0.3,0.7-0.7,0.7l-3.8-0.4c-0.3-0.1-0.7-0.3-0.6-0.8c0.9-4.6,5-6,8.8-6c1.9,0,4.4,0.5,5.9,2c1.9,1.8,1.7,4.2,1.7,6.7v6.1
		c0,1.8,0.8,2.6,1.5,3.6c0.2,0.4,0.3,0.8,0,1C69.5,29.2,68.1,30.4,67.3,31.1L67.3,31.1L67.3,31.1z"/>
	<path class="st1" d="M149.6,31.2l-1.6,0c-0.3,0-0.7-0.3-0.7-0.6v-2.6c-1.2,2.4-3,3.7-5.7,3.7c-2.7,0-4.5-1.4-5.8-3.7
		c-1.3-2.2-1.8-4.9-1.8-7.6C134,15,136.2,9,141.9,9c2.5,0,3.9,1.1,5.2,3l0-9.3c0-0.3,0.3-0.6,0.7-0.6l1.8,0c0.3,0,0.7,0.3,0.7,0.6
		v27.9C150.3,30.9,149.9,31.2,149.6,31.2L149.6,31.2z M161.4,9c5.8,0,8.2,5.2,8.3,11c0,0.3-0.3,0.6-0.7,0.6l-12.8,0
		c0,1.7,0.1,3.3,0.8,4.9c0.9,2,2.7,3.2,4.6,3.3c2.1-0.1,3.7-1.4,4.6-3.6c0.1-0.3,0.5-0.5,0.8-0.5l1.7,0.4c0.4,0.1,0.6,0.4,0.5,0.7
		c-1.2,3.6-4.1,5.7-7.9,5.7c-5.8,0-8.7-5.2-8.7-11.2C152.6,14.4,155.7,9,161.4,9L161.4,9z M147.1,21.8v-3.4c0-1.5-0.2-3-0.9-4.3
		c-0.9-1.5-2.4-2.4-4-2.4c-1.5,0.1-2.8,1.2-3.6,2.7c-0.8,1.7-1.1,3.7-1.1,5.6c0,3.5,0.8,8.7,4.6,8.8c1.6-0.1,3-1.1,3.9-2.6
		C146.9,24.8,147.1,23.4,147.1,21.8L147.1,21.8z M156.3,18.2h9.9c0-3.5-1.6-6.5-4.8-6.6C158.4,11.7,156.4,14.8,156.3,18.2
		L156.3,18.2z M129.5,29.5c0-1,0.9-1.8,1.9-1.8c1.1,0,1.9,0.8,1.9,1.8c0,1-0.9,1.8-1.9,1.8C130.4,31.4,129.5,30.6,129.5,29.5
		L129.5,29.5z"/>
	<path class="st1" d="M173.6,26.3c1.2,0,2.2,1,2.2,2.2c0,1.2-1,2.2-2.2,2.2c-1.2,0-2.2-1-2.2-2.2C171.4,27.3,172.4,26.3,173.6,26.3
		L173.6,26.3z M173.6,25.9c-1.4,0-2.6,1.1-2.6,2.6c0,1.5,1.2,2.6,2.6,2.6c1.4,0,2.6-1.2,2.6-2.6C176.2,27,175,25.9,173.6,25.9
		L173.6,25.9z M172.6,30h0.6v-1.2h0.5c0.2,0,0.3,0.1,0.3,0.2c0,0,0.1,0.8,0.1,0.9h0.6c-0.1-0.1-0.1-0.5-0.2-0.8
		c-0.1-0.4-0.1-0.6-0.5-0.7c0.2-0.1,0.6-0.2,0.6-0.7c0-0.8-0.7-0.8-1-0.8h-1V30L172.6,30z M173.2,27.5h0.5c0.2,0,0.4,0,0.4,0.4
		c0,0.2-0.1,0.4-0.4,0.4h-0.5V27.5L173.2,27.5z"/>
</g>
</svg>
