<svg version="1.1" xmlns="http://www.w3.org/2000/svg" viewBox="0 0 141 48">
<path d="M125.299 46.21c-1.4 1.79-1.4 1.79-4.176 1.79h-118.899c-1.193 0-2.386-1.193-2.386-2.386v-43.227c0-1.193 1.192-2.386 2.386-2.386h118.899c2.914 0 2.914 0 4.176 1.789l14.226 21.476c0.597 0.597 0.597 2.157 0 2.754l-14.226 20.192z"></path>
<path d="M121.125 48.114h-118.899c-1.261 0-2.501-1.239-2.501-2.501v-43.227c0-1.261 1.239-2.501 2.501-2.501h118.899c2.959 0 2.984 0.022 4.267 1.836l14.202 21.453c0.642 0.642 0.619 2.271 0 2.914l-14.202 20.192c-1.422 1.812-1.468 1.836-4.267 1.836zM2.226 0.114c-1.125 0-2.271 1.147-2.271 2.271v43.227c0 1.125 1.147 2.271 2.271 2.271h118.899c2.708 0 2.708 0 4.084-1.745l14.226-20.214c0.573-0.573 0.573-2.041 0.023-2.616l-0.023-0.023-14.226-21.476c-1.216-1.744-1.216-1.744-4.084-1.744h-118.899z"></path>
</svg>