<!-- Generated by IcoMoon.io -->
<svg version="1.1" xmlns="http://www.w3.org/2000/svg" viewBox="0 0 1191 1024">
<title></title>
<g id="icomoon-ignore">
</g>
<path fill="#000" d="M563.843 693.034l-8.097-321.345h88.969l-8.097 320.964v20.313h-73.18v-20.313l0.381 0.381zM553.698 856.278h92.993v-94.232h-92.993v94.256z"></path>
<path fill="#000" d="M124.666 945.176h947.343l-473.636-820.581-473.707 820.581zM1138.617 1022.333h-1080.558c-21.040-0.346-37.963-17.484-37.963-38.574 0-7.104 1.92-13.76 5.27-19.476l-0.099 0.182-0.143 0.191 540.315-936.365c6.888-11.311 19.148-18.753 33.147-18.765h0.002c13.979 0 26.267 7.454 33.006 18.623l0.048 0.191 540.339 936.365c3.18 5.488 5.056 12.075 5.056 19.1 0 21.222-17.125 38.444-38.309 38.601h-0.015l-0.095-0.048z"></path>
</svg>
