<!-- Generated by IcoMoon.io -->
<svg version="1.1" xmlns="http://www.w3.org/2000/svg" width="32" height="32" viewBox="0 0 32 32">
<title>check-rounded</title>
<path d="M26.054 4.432c0.498-0.748 1.337-1.235 2.291-1.235 1.515 0 2.742 1.228 2.742 2.742 0 0.433-0.1 0.842-0.279 1.206l0.007-0.016-0.182 0.323-14.778 22.4c-0.498 0.747-1.337 1.233-2.289 1.233-0.649 0-1.246-0.226-1.716-0.603l0.005 0.004-0.275-0.253-10.822-11.36c-0.468-0.491-0.757-1.158-0.757-1.891 0-1.515 1.228-2.742 2.742-2.742 0.649 0 1.246 0.226 1.716 0.603l-0.005-0.004 0.275 0.253 8.442 8.864 12.883-19.52z"></path>
</svg>
