<!-- Generated by IcoMoon.io -->
<svg version="1.1" xmlns="http://www.w3.org/2000/svg" width="512" height="512" viewBox="0 0 512 512">
<title></title>
<g id="icomoon-ignore">
</g>
<path fill="#000" d="M272 456c-110.4 0-200-89.6-200-200s89.6-200 200-200 200 89.6 200 200c0 110.4-89.6 200-200 200zM272 72c-100.8 0-184 83.2-184 184s83.2 184 184 184c100.8 0 184-83.2 184-184s-83.2-184-184-184z"></path>
<path fill="#000" d="M344 326.4c-1.6 1.6-4.8 3.2-8 3.2s-4.8-1.6-8-3.2l-56-56-56 56c-1.6 1.6-4.8 3.2-8 3.2s-4.8-1.6-8-3.2c-4.8-4.8-4.8-11.2 0-14.4l56-56-56-56c-4.8-4.8-4.8-11.2 0-14.4 4.8-4.8 11.2-4.8 14.4 0l56 56 56-56c4.8-4.8 11.2-4.8 14.4 0 4.8 4.8 4.8 11.2 0 14.4l-54.4 54.4 56 56c4.8 4.8 4.8 12.8 1.6 16z"></path>
</svg>
