<svg xmlns="http://www.w3.org/2000/svg" viewBox="0 0 32 32">
    <title>close</title>
    <path d="M18.733 15.56l10.24-10.227c0.747-0.747 0.747-1.973 0-2.733-0.351-0.346-0.834-0.56-1.367-0.56s-1.015 0.214-1.367 0.561l0-0-10.24 10.227-10.24-10.24c-0.346-0.33-0.816-0.533-1.333-0.533-1.068 0-1.933 0.866-1.933 1.933 0 0.517 0.203 0.987 0.534 1.334l-0.001-0.001 10.24 10.24-10.24 10.24c-0.33 0.346-0.533 0.816-0.533 1.333 0 1.068 0.866 1.933 1.933 1.933 0.517 0 0.987-0.203 1.334-0.534l-0.001 0.001 10.24-10.227 10.24 10.227c0.357 0.414 0.882 0.675 1.467 0.675 1.068 0 1.933-0.866 1.933-1.933 0-0.582-0.258-1.105-0.665-1.459l-0.002-0.002-10.24-10.253z" fill="parent"></path>
</svg>
