<!-- Generated by IcoMoon.io -->
<svg version="1.1" xmlns="http://www.w3.org/2000/svg" width="1024" height="1024" viewBox="0 0 1024 1024">
<title></title>
<g id="icomoon-ignore">
</g>
<path d="M512 128c-211.755 0-384 172.288-384 384s172.245 384 384 384 384-172.288 384-384-172.245-384-384-384zM512 810.667c-164.651 0-298.667-134.016-298.667-298.667 0-164.693 134.016-298.667 298.667-298.667s298.667 133.973 298.667 298.667c0 164.651-134.016 298.667-298.667 298.667zM542.165 512l112.896-112.896c8.235-8.277 8.235-21.845 0-30.165-8.32-8.277-21.931-8.277-30.165 0l-112.896 112.896-112.896-112.939c-8.32-8.277-21.888-8.277-30.165 0-8.32 8.32-8.32 21.888 0 30.165l112.896 112.939-112.896 112.896c-8.32 8.277-8.32 21.888 0 30.165 4.139 4.181 9.6 6.272 15.061 6.272s10.923-2.091 15.104-6.229l112.896-112.939 112.896 112.896c4.181 4.181 9.643 6.272 15.104 6.272s10.923-2.091 15.104-6.229c8.277-8.235 8.277-21.845 0-30.165l-112.939-112.939z"></path>
</svg>
