<svg version="1.1" xmlns="http://www.w3.org/2000/svg" viewBox="0 0 48 48">
<path d="M46.927 24.395l-9.092-8.414c-0.565-0.565-1.355-0.847-2.146-0.847h-4.574v-1.581c0-1.186-1.016-2.146-2.315-2.146h-25.92c-1.242 0-2.259 0.96-2.315 2.089v0 19.256c0 1.186 1.016 2.146 2.315 2.146h3.896c0.113 2.88 2.428 5.139 5.308 5.139s5.195-2.315 5.308-5.139h13.722c0.113 2.824 2.428 5.139 5.308 5.139s5.195-2.259 5.308-5.139h3.784c1.299 0 2.315-0.96 2.315-2.146v-6.268c0-0.791-0.339-1.525-0.904-2.089zM12.085 37.666c-1.638 0-2.936-1.299-2.936-2.936s1.299-2.936 2.936-2.936 2.936 1.299 2.936 2.936-1.299 2.936-2.936 2.936zM12.085 29.421c-2.936 0-5.308 2.372-5.308 5.308 0 0 0 0 0 0 0-2.936 2.372-5.365 5.308-5.308 1.751 0 3.275 0.791 4.235 2.089-0.96-1.242-2.485-2.089-4.235-2.089zM36.424 37.666c-1.638 0-2.936-1.299-2.936-2.936s1.299-2.936 2.936-2.936c1.638 0 2.936 1.299 2.936 2.936s-1.355 2.936-2.936 2.936zM41.732 34.786c0 0 0-0.056 0-0.056 0 0.056 0 0.056 0 0.056zM41.732 34.729c0-2.936-2.372-5.308-5.308-5.308-2.033 0-3.784 1.129-4.631 2.767 0.904-1.638 2.654-2.767 4.687-2.767 2.88-0.056 5.252 2.372 5.252 5.308 0 0 0 0 0 0zM42.861 25.581h-10.391c0 0 0-0.395 0-0.565v-6.438c0-0.169 0.113-0.282 0.282-0.282h2.993c0.056 0 0.169 0 0.226 0.056l7.454 6.72c0.226 0.169 0.113 0.508-0.565 0.508z"></path>
</svg>
