<svg xmlns="http://www.w3.org/2000/svg" viewBox="0 0 45.35 28.35"><g data-name="Ebene 2"><path d="M44.49 12.86l-8.73-8.33a2.85 2.85 0 00-2.06-.84h-4.38V2.12A2.17 2.17 0 0027.09 0H2.22A2.22 2.22 0 000 2.07v19.06a2.16 2.16 0 002.22 2.13H6a5.17 5.17 0 005.09 5.09 5.21 5.21 0 005.1-5.09h13.12a5.1 5.1 0 0010.19 0h3.63a2.16 2.16 0 002.22-2.13v-6.2a3 3 0 00-.86-2.07zM10.57 26a2.91 2.91 0 112.93-2.91A2.91 2.91 0 0110.57 26zm24.33 0a2.91 2.91 0 112.94-2.91A2.94 2.94 0 0134.9 26zm5.31-2.85zM41.34 14H31V7.1a.26.26 0 01.28-.28h3a.32.32 0 01.22.06l7.46 6.65c.22.17.11.5-.57.5z" data-name="Ebene 1"/></g></svg>