<svg xmlns="http://www.w3.org/2000/svg" viewBox="0 0 48 48"><path d="M46.362 25.186l-6.381-7.624c-.508-.508-1.186-.734-1.864-.734h-3.445s.339-.847.621-1.751c.339-.96-.056-1.807-1.525-1.807l-23.209.056c-1.073 0-1.638.169-1.976 1.92v.056l-.056.226h5.421c.395 0 .678.282.678.678v.621a.687.687 0 01-.678.678H5.534c-.226.113-.452.339-.452.621v.621c0 .282.226.565.452.621h10.334c.395 0 .678.282.678.678v.621a.653.653 0 01-.678.678H3.896a.653.653 0 00-.678.678v.621c0 .339.282.621.565.678h14.795c.395 0 .678.282.678.678v.621a.653.653 0 01-.678.678H1.242a.653.653 0 00-.678.678v.621c0 .395.282.678.678.678h4.969l-1.073 5.308c-.339 1.468.904 1.976 1.976 1.976h2.428c.113-2.428 2.146-4.405 4.631-4.405s4.461 1.92 4.631 4.405h12.085c.169-2.428 2.202-4.405 4.687-4.405s4.518 1.92 4.631 4.348h2.598c1.073 0 1.751-1.976 1.751-1.976s2.428-4.8 2.541-5.591c.113-.734-.226-1.299-.734-1.751zm-2.654-.057h-9.035c-.508 0-.565-.282-.508-.508l1.694-5.591c.056-.282.282-.282.452-.282h2.146c.056 0 .113 0 .169.056l5.252 5.873c.113.169 0 .452-.169.452z"/><path d="M14.174 39.247c-2.541 0-4.631-2.089-4.631-4.631s2.089-4.631 4.631-4.631 4.631 2.089 4.631 4.631-2.089 4.631-4.631 4.631zm0-7.736c-1.694 0-3.106 1.412-3.106 3.106s1.412 3.106 3.106 3.106 3.106-1.412 3.106-3.106-1.412-3.106-3.106-3.106zm21.346 7.793c-2.598 0-4.687-2.089-4.687-4.687s2.089-4.687 4.687-4.687 4.687 2.089 4.687 4.687-2.146 4.687-4.687 4.687zm0-7.737c-1.694 0-3.049 1.355-3.049 3.049s1.355 3.049 3.049 3.049 3.049-1.355 3.049-3.049a3.036 3.036 0 00-3.049-3.049z"/></svg>