<svg xmlns="http://www.w3.org/2000/svg" viewBox="0 0 45.35 28.35"><g data-name="Ebene 2"><g data-name="Ebene 1"><path d="M44.58 13.82L38.35 5a2.28 2.28 0 00-1.85-.8h-3.31l.58-2c.39-1.2 0-2.2-1.46-2.2L9.73.1C8.66.1 8.18.3 7.79 2.3v.3H13c.39 0 .68.3.68.81v.7a.7.7 0 01-.68.8H4.77a.83.83 0 00-.39.7v.7a.78.78 0 00.49.8h10a.7.7 0 01.68.8v.7c0 .5-.29.81-.68.81H3.21a.7.7 0 00-.68.8v.7a.87.87 0 00.58.8h14.41a.7.7 0 01.68.8v.7a.7.7 0 01-.68.8H.68a.7.7 0 00-.68.8v.71a.7.7 0 00.68.8h4.87l-1.07 6.11a1.8 1.8 0 001.94 2.3h2.34a4.61 4.61 0 014.48-5.11 4.65 4.65 0 014.47 5.11h11.88a4.62 4.62 0 014.47-5.11 4.7 4.7 0 014.48 5h2.63c1.07 0 1.75-2.3 1.75-2.3a60 60 0 002.43-6.51 2.69 2.69 0 00-.77-2zm-2.58-.1h-8.81c-.49 0-.59-.3-.49-.6l1.66-6.61c.09-.3.29-.3.48-.3h2c.09 0 .09 0 .19.1l5.16 7c0 .1-.1.4-.29.4z"/><path d="M13.24 28.35a5 5 0 01-4.87-5 4.87 4.87 0 119.73 0 5 5 0 01-4.86 5zm0-7.82a2.81 2.81 0 000 5.61 2.82 2.82 0 002.76-2.8 2.76 2.76 0 00-2.76-2.81zm20.82 7.82a5 5 0 01-4.86-5 4.89 4.89 0 014.86-5 5 5 0 010 10zm0-7.82a2.81 2.81 0 102.73 2.81 2.83 2.83 0 00-2.73-2.81z"/></g></g></svg>