<!-- Generated by IcoMoon.io -->
<svg version="1.1" xmlns="http://www.w3.org/2000/svg" viewBox="0 0 1024 1024">
<title></title>
<g id="icomoon-ignore">
</g>
<path d="M979.424 150.592h-313.216c-19.264-45.792-66.272-78.304-119.264-78.304s-100 32.512-120.48 78.304h-381.888c-24.096 0-44.576 20.48-44.576 44.576v8.448c0 24.096 20.48 44.576 44.576 44.576h379.488c18.080 50.592 66.272 85.536 122.88 85.536s104.8-36.128 122.88-85.536h310.816c24.096 0 44.576-20.48 44.576-44.576v-8.448c-1.216-24.096-21.696-44.576-45.792-44.576z"></path>
<path d="M979.424 472.256h-585.472c-19.264-48.192-66.272-81.92-121.664-81.92s-102.4 33.728-121.664 81.92h-106.016c-24.096 0-44.576 20.48-44.576 44.576v8.448c0 24.096 20.48 44.576 44.576 44.576h106.016c19.264 48.192 66.272 81.92 121.664 81.92s102.4-33.728 121.664-81.92h585.472c24.096 0 44.576-20.48 44.576-44.576v-8.448c0-25.312-20.48-44.576-44.576-44.576z"></path>
<path d="M979.424 786.688h-145.76c-19.264-48.192-66.272-81.92-121.664-81.92s-101.184 33.728-121.664 81.92h-545.728c-24.096 0-44.576 20.48-44.576 44.576v8.448c0 24.096 20.48 44.576 44.576 44.576h545.728c19.264 48.192 66.272 83.136 121.664 83.136s102.4-34.944 121.664-83.136h145.76c24.096 0 44.576-20.48 44.576-44.576v-8.448c0-24.096-20.48-44.576-44.576-44.576z"></path>
</svg>
