<svg version="1.1" xmlns="http://www.w3.org/2000/svg" width="1024" height="1024" viewBox="0 0 1024 1024">
<path fill="#000" d="M512 0c282.77 0 512 229.23 512 512s-229.23 512-512 512v0c-282.77 0-512-229.23-512-512s229.23-512 512-512v0zM575.488 457.387h-126.498v361.813h126.498v-361.813zM512.546 204.8c-10.923 0-21.299 2.116-30.993 6.417-28.995 12.823-48.864 41.328-48.879 74.477v0.002c0 10.923 2.048 21.163 6.349 30.72s9.967 17.954 17.203 25.122c7.1 7.1 15.565 12.834 25.259 17.067 9.247 4.087 20.030 6.466 31.369 6.466s22.122-2.379 31.878-6.665l-0.509 0.199c19.349-8.376 34.6-23.185 43.336-41.675l0.218-0.514c4.197-9.185 6.644-19.923 6.644-31.232s-2.447-22.047-6.84-31.713l0.196 0.481c-13.124-29.107-41.836-49.028-75.214-49.152h-0.016z"></path>
</svg>
