<!-- Generated by IcoMoon.io -->
<svg version="1.1" xmlns="http://www.w3.org/2000/svg" width="512" height="512" viewBox="0 0 512 512">
<title>info</title>
<g id="icomoon-ignore">
</g>
<path fill="#000" d="M255.833 507.399c-67.513 0-131.012-26.269-178.781-74.039s-74.039-111.268-74.039-178.865 26.27-131.012 74.039-178.781c47.77-47.687 111.268-74.039 178.781-74.039s131.012 26.27 178.782 74.039c47.77 47.77 74.039 111.268 74.039 178.781s-26.269 131.012-74.039 178.781c-47.77 47.77-111.268 74.123-178.781 74.123zM255.833 53.291c-53.793 0-104.324 20.915-142.306 58.98-37.981 37.981-58.98 88.512-58.98 142.222 0 53.794 20.915 104.324 58.98 142.306 37.981 37.981 88.596 58.981 142.306 58.981s104.324-20.915 142.306-58.981 58.981-88.596 58.981-142.306c0-53.793-20.915-104.324-58.981-142.306s-88.512-58.897-142.306-58.897z"></path>
<path fill="#000" d="M256 168.575v0c-13.135 0-23.843-10.709-23.843-23.843v-7.696c0-13.135 10.708-23.843 23.843-23.843v0c13.135 0 23.843 10.709 23.843 23.843v7.697c0 13.135-10.709 23.843-23.843 23.843z"></path>
<path fill="#000" d="M256 398.892v0c-13.135 0-23.843-10.709-23.843-23.843v-168.575c0-13.135 10.708-23.843 23.843-23.843v0c13.135 0 23.843 10.708 23.843 23.843v168.575c0 13.051-10.709 23.843-23.843 23.843z"></path>
</svg>
