<svg id="link" viewBox="0 0 32 32">
    <path d="M27.48 26.43a3.2 3.2 0 0 1-3.2 3.2H5.53a3.2 3.2 0 0 1-3.2-3.2V7.68a3.2 3.2 0 0 1 3.2-3.2h4.9l-1.14-1.5H5.53a4.7 4.7 0 0 0-4.7 4.7v18.75c0 2.6 2.1 4.7 4.7 4.7h18.75c2.6 0 4.7-2.1 4.7-4.7v-4.6l-1.5-.82v5.42z"/>
    <path d="M2.33 7.68v18.75a3.2 3.2 0 0 0 3.2 3.2h18.75a3.2 3.2 0 0 0 3.2-3.2v-5.38l-1.5-.84v6.22c0 .94-.76 1.7-1.7 1.7H5.53c-.94 0-1.7-.76-1.7-1.7V7.68c0-.94.76-1.7 1.7-1.7h6.03l-1.13-1.5h-4.9a3.2 3.2 0 0 0-3.2 3.2z"/>
    <path d="M28.99 3.95c0-.04-.04-.07-.04-.15 0-.03-.04-.07-.04-.15 0-.04 0-.04-.04-.08 0 0 0-.03-.03-.03-.04-.04-.04-.07-.07-.15-.04-.04-.04-.08-.08-.12s-.08-.07-.08-.1c-.04-.04-.04-.08-.07-.12l-.11-.1c-.04-.05-.08-.05-.08-.09-.03-.03-.07-.07-.1-.07-.05-.04-.09-.04-.12-.08s-.08-.04-.15-.08l-.12-.03c0 .03 0 .03-.03.03s-.08 0-.08-.03c-.03 0-.07-.04-.11-.04l-.15-.03h-.34l-12.27.33a1.88 1.88 0 0 0-1.8 1.92c.02 1.01.85 1.82 1.86 1.82h.01l7.8-.23-11.71 12.42c-.45.45-.6 1.1-.45 1.66.17.82.9 1.43 1.76 1.43h.09c.48 0 .93-.23 1.27-.57L25.46 8.85l.23 7.76c.04 1 .86 1.8 1.87 1.8h.05c.52 0 .98-.22 1.28-.56.33-.34.52-.83.48-1.32l-.33-12.24v-.22C29 4.03 29 3.99 29 3.95z"/>
</svg>