<?xml version="1.0" encoding="utf-8"?>
<!-- Generator: Adobe Illustrator 22.1.0, SVG Export Plug-In . SVG Version: 6.00 Build 0)  -->
<svg version="1.1" id="Ebene_1" xmlns="http://www.w3.org/2000/svg" xmlns:xlink="http://www.w3.org/1999/xlink" x="0px" y="0px"
	 viewBox="0 0 144.2 75.4" style="enable-background:new 0 0 144.2 75.4;" xml:space="preserve">
<style type="text/css">
	.st0{fill:#ffffff;}
	.st1{fill:#ffffff;}
	.st2{fill:#ffffff;}
</style>
<path class="st0" d="M7.6,46.8v14H1V23.2h9.7c3.8,0,5.6,1.6,5.6,6.1v12C16.2,46.1,14.6,46.8,7.6,46.8z M9.6,29.3
	c0-0.6-0.4-1.2-1.1-1.3H7.6v14h1.1c0.6,0,1.1-0.4,1.1-1c0,0,0,0,0-0.1L9.6,29.3z"/>
<path class="st0" d="M24.5,60.8h-6.1v-30H24l0.5,0.9c1-0.8,2.3-1.3,3.6-1.4c2.5,0,4.3,1.1,4.3,5.6v7h-5.9v-6.7
	c0-0.7-0.4-1.3-0.9-1.3s-0.9,0.4-0.9,1.3v24.6C24.7,60.8,24.5,60.8,24.5,60.8z"/>
<path class="st0" d="M41.9,49.7h5.9v5.2c0,4.5-1.3,6.1-5,6.1h-3.2c-3.8,0-5.6-1.6-5.6-6.1V36.6c0-4.5,1.6-5.9,5.2-5.9h3
	c3.8,0,5.6,1.6,5.6,5.9V47h-7.7v8.4c0,0.7,0.4,1.3,0.9,1.3s0.9-0.4,0.9-1.3C41.9,55.4,41.9,49.7,41.9,49.7z M40.1,43.3h2v-7.2
	c0-0.7-0.4-1.1-0.9-1.1s-0.9,0.4-0.9,1.1v7.2H40.1z"/>
<path class="st0" d="M56.2,28.7h-6.1v-5.6h6.1V28.7z M50.1,30.9h6.1v30h-6.1V30.9z"/>
<path class="st0" d="M66.1,51.3c0-4.5-7.9-4.5-7.9-10.8v-3.9c0-4.5,1.6-5.9,5.2-5.9h3.2c3.8,0,5.3,1.6,5.3,5.9v4.1H66V36
	c0-0.7-0.4-1.1-0.9-1.1s-0.9,0.4-0.9,1.1v3.4c0,4.3,8.1,4.1,8.1,11.1V55c0,4.5-1.6,6.1-5.2,6.1h-3.2c-3.8,0-5.3-1.8-5.3-6.1v-5.2
	h5.7v5.6c0,0.7,0.4,1.1,0.9,1.1s0.9-0.4,0.9-1.1V51.3z"/>
<path class="st0" d="M80.1,60.8H74v-5.6h6.1V60.8z"/>
<path class="st0" d="M82.4,36.1c0-4.7,2-5.6,4.5-5.6c1.3,0.1,2.6,0.6,3.6,1.4v-8.8h6.1v37.7H91l-0.7-1.3c-1,0.9-2.2,1.4-3.6,1.4
	c-2.5,0-4.5-1.1-4.5-5.7L82.4,36.1z M90.3,36.3c0-0.6-0.3-1.1-0.9-1.3c-0.5,0-0.9,0.4-0.9,1.3v19c0,0.7,0.4,1.1,0.9,1.1
	s0.9-0.4,0.9-1.1V36.3z"/>
<path class="st0" d="M106.6,49.7h5.9v5.2c0,4.5-1.3,6.1-5,6.1h-3.2c-3.8,0-5.6-1.6-5.6-6.1V36.6c0-4.5,1.6-5.9,5.2-5.9h2.9
	c3.8,0,5.6,1.6,5.6,5.9V47h-7.7v8.4c0,0.7,0.4,1.3,0.9,1.3s0.9-0.4,0.9-1.3L106.6,49.7C106.5,49.7,106.6,49.7,106.6,49.7z
	 M104.7,43.3h2v-7.2c0-0.7-0.4-1.1-0.9-1.1s-0.9,0.4-0.9,1.1v7.2H104.7z"/>
<path class="st0" d="M136.6,27.7c-0.4,0.3-0.8,0.4-1.3,0.5h-17.9c-0.4,0-0.7-0.3-0.7-0.7V14.6c0-0.4,0.3-0.7,0.7-0.7h17.9
	c0.5,0,0.9,0.2,1.3,0.5l6.2,6.5c0.2,0.3,0.2,0.6,0,0.9L136.6,27.7z"/>
<path class="st1" d="M136.6,44.2c-0.4,0.3-0.8,0.4-1.3,0.5h-17.9c-0.4,0-0.7-0.3-0.7-0.7V31.1c0-0.4,0.3-0.7,0.7-0.7h17.9
	c0.5,0,0.9,0.2,1.3,0.5l6.2,6.5c0.2,0.3,0.2,0.6,0,0.9L136.6,44.2z"/>
<path class="st2" d="M136.6,60.6c-0.4,0.3-0.8,0.4-1.3,0.5h-17.9c-0.4,0-0.7-0.3-0.7-0.7V47.5c0-0.4,0.3-0.7,0.7-0.7h17.9
	c0.5,0,0.9,0.2,1.3,0.5l6.2,6.5c0.2,0.3,0.2,0.6,0,0.9L136.6,60.6z"/>
</svg>
