<!-- Generated by IcoMoon.io -->
<svg version="1.1" xmlns="http://www.w3.org/2000/svg" width="32" height="32" viewBox="0 0 32 32">
<title>manual</title>
<path d="M31.605 10.16h-7.522v-6.021h7.522l-2.171 3.010z"/>
<path d="M23.763 31.232h-20.045c-0.647 0-1.084-0.67-1.084-1.298v-28.297c0-0.591 0.361-0.884 1.080-0.884h20.049c0.357 0 1.449 0 1.449 0.881v28.301c0 0.696-0.903 1.298-1.449 1.298zM3.812 30.103h19.932c0.090-0.023 0.271-0.151 0.335-0.233v-27.977c-0.109-0.011-0.248-0.011-0.312-0.011h-20.004v28.053c0 0.056 0.023 0.128 0.049 0.169z"/>
<path d="M19.838 12.286c0 0.73-0.113 1.385-0.327 1.968s-0.527 1.084-0.926 1.513c-0.41 0.432-0.875 0.806-1.385 1.112l-0.030 0.016c-0.549 0.335-1.166 0.636-1.844 0.911v2.525h-3.789v-3.714c0.414-0.109 0.873-0.263 1.377-0.452s0.952-0.429 1.336-0.711c0.393-0.277 0.724-0.611 0.989-0.995l0.009-0.013c0.243-0.368 0.388-0.819 0.388-1.305 0-0.020-0-0.040-0.001-0.061l0 0.003c0-0.73-0.23-1.264-0.696-1.595-0.467-0.335-1.114-0.5-1.942-0.5-0.617 0-1.279 0.139-1.976 0.414-0.631 0.233-1.175 0.508-1.681 0.836l0.033-0.020h-0.32v-3.334c0.474-0.207 1.166-0.418 2.070-0.632s1.885-0.324 2.928-0.324c0.933 0 1.754 0.113 2.469 0.327s1.317 0.527 1.821 0.914c0.466 0.369 0.841 0.83 1.103 1.358l0.010 0.023c0.242 0.494 0.384 1.076 0.384 1.691 0 0.014-0 0.028-0 0.042l0-0.002zM15.635 24.76h-4.365v-2.924h4.365v2.924zM3.010 28.937v-2.521l1.505 0.294v-2.453l-1.505 0.324v-2.54l1.505 0.294v-1.81l-1.505 0.324v-2.54l1.505 0.294v-1.81l-1.505 0.324v-2.551l1.505 0.297v-1.81l-1.505 0.324v-2.536l1.505 0.293v-1.81l-1.505 0.324v-2.54l1.505 0.293v-1.81l-1.505 0.324v-2.54l1.505 0.293v-2.611c0-0.339-0.361-0.297-0.726-0.297h-2.879c-0.365-0.004-0.534-0.041-0.534 0.297v29.663c0 0.339 0.169 0.516 0.534 0.516h2.879c0.365 0 0.726-0.181 0.726-0.519v-2.096l-1.505 0.324z"/>
</svg>
