<svg
  xmlns="http://www.w3.org/2000/svg"
  aria-hidden="true"
  viewBox="0 0 32 32"
>
  <path d="M16 .8C7.6.8.8 7.6.8 16S7.6 31.2 16 31.2 31.2 24.4 31.2 16 24.4.8 16 .8zm6.8 14.7c-.1.6-.3 1.2-.6 1.8s-.6 1.1-1 1.5c-.4.4-.9.8-1.5 1a3.998 3.998 0 01-1.762.402 4.05 4.05 0 01-1.564-.312l.027.01c-.5-.2-.8-.5-1-.9-.1.3-.2.6-.3 1.1s-.2.8-.2 1c0 .1-.1.4-.2.7s-.2.6-.3.7c-.1.1-.2.4-.3.6-.1.3-.3.5-.5.8-.2.2-.4.5-.6.9h-.1l-.1-.1c-.1-1.1-.2-1.7-.2-1.9 0-.6.1-1.3.2-2.1s.4-1.7.7-2.9c.3-1.2.5-1.9.5-2.1-.2-.4-.3-1-.3-1.7 0-.6.2-1.1.5-1.6.4-.5.8-.7 1.3-.7.4 0 .7.1 1 .4.2.3.3.6.3 1s-.1 1.1-.4 1.9c-.3 1-.4 1.7-.4 2.1s.2.8.5 1.1c.3.3.7.4 1.1.4s.7-.1 1-.3.6-.4.8-.7c.2-.3.4-.6.6-1s.3-.7.4-1.1c.1-.4.2-.8.2-1.1 0-.4.1-.7.1-1 0-1.2-.4-2.1-1.1-2.7-.7-.7-1.7-1-2.9-1-1.4 0-2.5.4-3.4 1.3a4.523 4.523 0 00-1.295 4.23l-.005-.03c.1.3.2.5.3.7s.2.3.3.5c.1.1.1.2.1.3 0 .2 0 .4-.2.7-.1.3-.2.5-.4.5h-.2c-.3-.1-.7-.3-.9-.6-.3-.3-.5-.6-.6-1s-.3-.7-.3-1.1c-.1-.4-.1-.7-.1-1.1 0-.7.1-1.4.4-2.1.3-.6.6-1.2 1.1-1.7.4-.5 1-.9 1.5-1.2.6-.4 1.2-.6 1.9-.8s1.4-.3 2-.3c1.1 0 2.1.2 3 .7s1.7 1.1 2.2 2c.6.9.9 1.8.9 2.9 0 .7-.1 1.3-.2 1.9z"></path>
</svg>