<svg id="populary" viewBox="0 0 32 32">
  <path d="M29.28 9.92c-.23.1-.6.24-1.02.39a13.52 13.52 0 1 1-5.9-6.23l-.07-.04c.04-.46.13-1 .3-1.42.1-.29.26-.55.42-.8a15.82 15.82 0 1 0 7.3 7.43l.05.1c-.35.22-.7.41-1.08.57z"/>
  <path d="M27.95 4.18s.7-.4.92-.45c.22-.06.67-.13.85-.12s.52.08.86.25c.33.17.6.42.78.73.14.28.33.8.3 1.23s-.16.87-.28 1.1c0 0-.3.6-1.01 1.03-.71.44-1.35.83-2.1 1.06-.77.22-3.28.76-3.28.76s-.64-1.32-.77-1.65c-.12-.34-.58-1.46-.69-1.93-.1-.47-.2-1.3-.2-1.66s.13-1.14.4-1.65c.24-.49.6-.87 1.06-1.13h.01c.44-.22 1.07-.32 1.5-.15.43.18.99.4 1.22.96s.43 1.62.43 1.62zm-14.37 7.66s.46-1.7.7-2.13a9.2 9.2 0 0 1 1.11-1.53 4.84 4.84 0 0 1 4.07-1.08c.63.22 1.73.7 2.38 1.4.55.6.99 1.31 1.28 2.1l.02.04s.5 1.36.09 3.16c-.4 1.79-.76 3.39-1.57 4.93s-3.79 6.31-3.79 6.31-3.06-1.01-3.77-1.32c-.72-.31-3.18-1.31-4.1-1.86-1.1-.7-2.06-1.42-2.95-2.21l.02.02a9.54 9.54 0 0 1-1.98-3.17 5.7 5.7 0 0 1-.15-3.42c.32-1.01 1.13-2.16 2.06-2.57.93-.41 2.16-.94 3.38-.47s3.2 1.8 3.2 1.8z"/>
</svg>