<svg xmlns="http://www.w3.org/2000/svg" viewBox="0 0 33 32"><path d="M25.514.785A6.452 6.452 0 0129.95 11.92c.07.212.135.427.195.644l.008.03c.096.351.179.708.248 1.069l.017.09c.066.355.119.714.158 1.078l.005.05c.024.232.043.466.056.701l.004.068-.001.006.002.041.012.309v-.015l.001.02v.009a14.177 14.177 0 01-3.637 9.884l.012-.013 3.134 3.135a.575.575 0 01-.409.982.57.57 0 01-.348-.117l.001.001-.059-.051-3.121-3.122a14.181 14.181 0 01-9.835 3.943h-.02.001-.02a14.183 14.183 0 01-9.674-3.793l.009.008-2.963 2.963a.576.576 0 01-.865-.757l-.001.001.051-.059 2.963-2.964a14.17 14.17 0 01-3.782-9.438v-.011l-.002-.236.002-.237.003-.116v-.031a14.57 14.57 0 01.202-2.051l.01-.052c.126-.711.279-1.321.471-1.914l-.028.1.051-.156A6.415 6.415 0 01.8 7.677l-.001-.019-.01-.214-.003-.207A6.452 6.452 0 0111.773 2.65l.147.15.07-.022.221-.07.008-.003c.115-.035.23-.068.346-.1l.049-.013c.23-.063.462-.12.696-.171l.031-.006c.018-.007.127-.03.236-.052l.086-.014.09-.017c.274-.055.642-.111 1.014-.152l.064-.006.05-.005c.232-.024.466-.043.701-.056l.219-.01.02-.001-.17.007.37-.013.027-.001a16.55 16.55 0 01.577-.002h-.012l.092.002c.274.006.529.019.783.038l-.049-.003h.004c.112.008.228.019.343.029l.032.003c.106.011.212.022.318.036l.012.001c.113.014.226.029.338.046l.028.004c.094.013.188.029.28.045l.07.012c.218.038.433.081.646.129l.024.006c.441.099.874.218 1.298.358a6.41 6.41 0 014.242-2l.019-.001.214-.01.207-.003zm-11.665 2.7l-.221.045-.076.017-.221.051-.1.024-.075.019-.12.03-.292.081-.04.012.081-.024-.1.029-.106.031.065-.019-.173.052-.154.049.095-.03-.102.032-.236.079C8.334 5.29 5.427 8.151 4.067 11.77l-.03.091-.028.077-.111.32-.102.322-.087.302-.013.046c-.124.434-.238.973-.318 1.523l-.008.07-.051.405-.001.007-.003.031-.004.034.004-.033-.03.321c-.03.361-.045.724-.045 1.089 0 7.179 5.76 13.012 12.911 13.131l.221.002.221-.002c7.151-.118 12.911-5.952 12.911-13.131 0-.227-.006-.453-.017-.678l-.003-.041-.001-.009-.019-.301a11.793 11.793 0 00-.044-.473l.005.06.003.03-.038-.323a10.889 10.889 0 00-.051-.356l-.004-.021-.023-.134.011.061-.01-.06-.013-.072-.015-.083.01.06-.017-.095.007.035-.017-.088.004.027-.024-.127-.039-.188-.019-.083-.039-.17-.029-.122.014.058-.041-.165-.022-.085-.02-.079.015.061-.046-.172-.04-.14-.017-.059.011.04-.027-.091-.004-.015v-.001l-.004-.015-.029-.098a5.9 5.9 0 00-.083-.269l.035.121-.082-.245c-1.334-3.757-4.218-6.673-7.861-8.024l-.091-.03-.021-.007-.154-.054-.154-.052-.108-.035-.227-.07-.079-.024-.198-.056-.095-.026-.31-.079a9.263 9.263 0 00-.603-.134l-.082-.013.019.004a11.211 11.211 0 00-.939-.143l-.06-.006-.007-.001-.351-.033a12.193 12.193 0 00-.737-.04h-.017l-.336-.004-.356.004-.091.003-.184.007-.076.004-.321.021c-.402.031-.754.074-1.101.13l.076-.01-.038.006-.01.001-.071.012-.167.029-.107.019-.029.005-.05.01zm11.665-1.548h-.009a5.257 5.257 0 00-3.488 1.318l.006-.005c3.366 1.479 5.998 4.112 7.441 7.386l.036.092a5.298 5.298 0 00-3.986-8.791zm-18.278 0a5.299 5.299 0 00-3.98 8.796l-.005-.006c1.479-3.366 4.112-5.998 7.386-7.441l.092-.036a5.248 5.248 0 00-3.483-1.313h-.009z"/><path d="M11.588 9.47l.044.058 4.884 7.327 4.735-3.551a.575.575 0 01.923.46c0 .163-.068.31-.176.415l-.055.047-5.24 3.93a.031.031 0 01-.006.004l-.002.001-.011.006-.024.015-.017.009-.003.002.054-.032a.577.577 0 01-.424.087l.004.001a.582.582 0 01-.333-.189l-.001-.001-.015-.017-.01-.013-.001-.001-.008-.013-.01-.013-5.222-7.834a.576.576 0 01.915-.699l.001.001z"/></svg>