<svg xmlns="http://www.w3.org/2000/svg" viewBox="0 0 28 32"><path d="M10.092 7.345l-.167 1.589-8.773 6.814V29.57l.005.025a.07.07 0 00.034.034l.025.006 25.626-.005a.064.064 0 00.038-.059V15.756l-3.809-2.835.778-.857 3.951 2.94.059.051a.573.573 0 01.173.412v14.104l-.004.095a1.217 1.217 0 01-1.212 1.121l-25.695-.004a1.218 1.218 0 01-1.122-1.212V15.467l.005-.076a.582.582 0 01.217-.379l.001-.001 9.869-7.667z"/><path d="M2.814 15.652l11.243 7.459 10.506-7.45.666.939-11.149 7.909L2.177 16.61zm3.8 7.705l.905-.905.815.815-.905.905-.815-.815zM4.352 25.62l.905-.905.815.814-.906.906-.814-.815zM2.09 27.883l.905-.905.814.815-.905.905-.814-.815zm17.598-4.625l.815-.815.905.906-.814.814-.906-.905zm2.263 2.263l.815-.814.905.904-.815.815-.905-.906zm2.263 2.263l.815-.815.905.905-.815.815-.905-.905z"/><path d="M23.079 3.8a2.83 2.83 0 01.432 5.121l-.014.007-.115.06a5.97 5.97 0 01-.044.459l.003-.031-.006.046a5.887 5.887 0 01-.148.735l.009-.041a5.384 5.384 0 01-.071.248l-.011.034-.009.029a5.972 5.972 0 01-2.624 3.3l-.027.015.652 1.398a.48.48 0 01-.834.468l-.001-.002-.035-.061-.645-1.384a5.834 5.834 0 01-2.163.408 5.941 5.941 0 01-2.082-.375l.041.013a5.983 5.983 0 01-3.129-2.627l-.015-.029-1.306.609a.48.48 0 01-.47-.834l.002-.001.062-.035 1.306-.61a5.834 5.834 0 01-.374-2.076c0-.732.133-1.434.375-2.082l-.013.041.061-.161c.095-.237.185-.429.284-.615l-.016.032c.145-.276.31-.537.492-.781l-.049-.121a2.767 2.767 0 01-.183-1c0-.292.044-.573.127-.838l-.005.02.05-.15a2.83 2.83 0 015.121-.432l.007.014.061.116c.145.008.286.022.427.04l.046.006c.072.01.143.021.214.033l.015.003c.292.052.543.116.787.196l-.041-.011-.216-.064.182.053.034.011.026.008c.375.121.694.258.997.42l-.033-.016c.216.113.422.239.619.375l.005.004.01.007.146.105.122-.049c.297-.116.64-.183 1-.183.292 0 .573.044.838.127l-.02-.005zm-3.942.142l-.196-.067c.026.007.017.004.007.001l-.036-.01.029.009a2.33 2.33 0 00-.164-.05l-.036-.009.171.05a2.447 2.447 0 00-.164-.049l-.035-.008.028.008a4.427 4.427 0 00-.436-.1l-.03-.005.053.01a4.602 4.602 0 00-.477-.065l-.018-.001.066.006a4.861 4.861 0 00-.161-.013l-.015-.001.109.008a5.004 5.004 0 00-4.369 1.93l-.009.011.113-.142a5.173 5.173 0 00-.143.181l.029-.039c-.031.04-.069.091-.107.144l-.01.015.088-.12a4.52 4.52 0 00-.111.152l-.011.016.034-.047a4.74 4.74 0 00-.253.395l-.013.024.031-.054a5.005 5.005 0 002.576 7.214l.035.011v-.001l.15.052a5.004 5.004 0 006.488-3.874l.004-.03-.01.053c.027-.136.05-.305.065-.477l.001-.018-.005.066c.005-.059.01-.117.013-.175l-.008.109a5.005 5.005 0 00-1.932-4.371l-.012-.009.145.115a4.207 4.207 0 00-.169-.133l-.013-.009.036.027a6.611 6.611 0 00-.141-.105l-.015-.01.12.088a5.845 5.845 0 00-.152-.111l-.016-.011.048.034a4.74 4.74 0 00-.395-.253l-.024-.013.054.031a4.372 4.372 0 00-.397-.209l-.031-.013.026.012a2.954 2.954 0 00-.156-.071l-.033-.012.163.072a2.8 2.8 0 00-.158-.071l-.033-.012-.193-.075zm-2.336 1.353l.021.067.772 3.166 2.013-.611a.48.48 0 01.349.892l-.003.001-.067.026-2.511.762a.03.03 0 00-.009.003l-.003.001-.022.003-.021.005a.081.081 0 00-.009.002h-.003l.055-.01a.482.482 0 01-.498-.18l-.001-.001a.5.5 0 01-.058-.101l-.001-.003-.009-.023-.005-.016-.001-.003-.001-.009-.005-.016-.892-3.66a.48.48 0 01.91-.298l.001.003zm-.921-3.094a1.87 1.87 0 00-2.486 2.059l-.001-.011a5.966 5.966 0 013.227-1.516l.031-.003a1.854 1.854 0 00-.757-.524l-.013-.004zm6.871 2.501a1.821 1.821 0 00-.94-.09l.011-.001a5.965 5.965 0 011.515 3.227l.003.031a1.87 1.87 0 00-.576-3.163l-.013-.004z"/></svg>