<svg xmlns="http://www.w3.org/2000/svg" viewBox="0 0 30 32"><path d="M24.067 1.516a6.364 6.364 0 014.752 10.598l.006-.006-.165.178-.1.1.057.185.016.056c.015.036.053.17.09.304l.022.096.007.026.046.182c.05.206.096.414.138.622l.018.096c.023.119.044.238.064.358l.013.083c.019.123.037.248.053.373l.008.061c.05.415.083.835.097 1.261l.002.044v.014a13.676 13.676 0 01-3.351 9.401l.014-.017 2.799 2.8a.799.799 0 01-.563 1.368.798.798 0 01-.495-.171l.002.001-.075-.066-2.782-2.782a13.675 13.675 0 01-9.305 3.634h-.021.001-.02a13.68 13.68 0 01-9.155-3.498l.013.012-2.634 2.634a.799.799 0 01-1.368-.563c0-.187.064-.359.171-.495l-.001.002.066-.076 2.635-2.634a13.665 13.665 0 01-3.484-8.888v-.013l-.002-.262.002-.262c.004-.195.011-.377.021-.557l-.002.037.006-.106c.021-.326.048-.608.084-.888l-.007.069.008-.059.005-.04c.105-.805.28-1.588.518-2.342l-.098-.099A6.315 6.315 0 01.42 8.404l-.001-.022-.016-.262-.004-.238A6.364 6.364 0 0110.997 3.13l-.006-.006.178.165.101.101.124-.04.046-.014.069-.021c.036-.015.171-.054.306-.09l.096-.022.025-.006.182-.046c.08-.02.162-.04.244-.058l.018-.004c.12-.027.24-.053.361-.077l.096-.018c.119-.022.238-.043.358-.062l.083-.014c.125-.019.251-.038.378-.054l.056-.006c.274-.034.55-.06.829-.078l.046-.003.476-.02a12.35 12.35 0 01.799.003l-.022-.001.036.001c.108.004.216.008.323.014l.106.006c.193.012.344.024.494.039l-.057-.005.016.002c.123.012.245.026.366.04l.09.012c.126.016.253.034.378.054l.042.007c.138.022.276.046.413.073l.01.002c.136.026.272.054.406.085l.048.011c.269.062.534.131.797.208l.018.006.024.007.216.066.099-.098a6.312 6.312 0 013.884-1.752l.022-.001.262-.016.238-.004zM13.624 4.482l-.054.009.036-.006.018-.003h.008l-.026.003-.086.013.05-.007-.097.016.048-.008-.098.016-.232.04-.08.014-.004.002-.219.043-.026.006.01-.002.016-.003.074-.015-.056.012-.034.006-.019.004h.001l-.013.002-.134.031-.246.058-.094.024.039-.01a9.622 9.622 0 00-.333.09l.053-.015-.171.05a6.695 6.695 0 00-.315.095l.08-.023.038-.013-.152.05-.275.094C7.945 6.289 5.31 8.879 4.043 12.151l-.028.083-.068.184c-.082.23-.158.464-.227.699l-.098.354-.004.017-.006.016.004-.013-.084.35c-.028.124-.054.248-.078.374l-.066.376-.016.097-.006.038-.002.021-.003.019-.008.054.004-.023-.005.032-.006.037.001-.002-.005.04-.018.14-.034.312a11.44 11.44 0 00-.052.838v.016l-.004.324c0 6.643 5.318 12.044 11.929 12.178l.252.002.252-.002c6.61-.134 11.929-5.535 11.929-12.178 0-.108-.002-.216-.004-.324l-.003-.066-.014-.334a13.067 13.067 0 00-.03-.398l-.003-.029-.014-.139-.012-.111.01.084-.008-.083-.012-.091-.016-.13-.002-.008-.006-.038v-.002l-.005-.035v-.002l-.005-.029-.004-.03-.002-.016v-.006l-.008-.053v-.002l-.016-.097.008.049-.054-.322a11.5 11.5 0 00-.197-.898l.019.084-.006-.018-.036-.14-.013-.045-.011-.041-.008-.028-.054-.188-.002-.006-.004-.013-.025-.085-.019-.058-.011-.036-.002-.01-.037-.114-.094-.274c-1.257-3.451-3.926-6.124-7.29-7.361l-.085-.027-.022-.008-.24-.082-.099-.032.024.008a8.895 8.895 0 00-.625-.189l-.112-.026-.023-.006.022.006-.046-.011-.31-.074-.112-.024-.253-.052h-.003l-.085-.016-.168-.03-.02-.003.01.002.009.002.046.008-.037-.006-.018-.003-.036-.006-.064-.01.044.008.02.002.026.005-.046-.008-.144-.022.099.016-.155-.024-.086-.014-.034-.004-.178-.023-.267-.03-.1-.01.02.002.013.002.024.002-.037-.004-.324-.025c-.132-.01-.304-.018-.477-.023h-.017l-.324-.004-.324.004c-.267.007-.534.022-.798.046l-.122.012-.182.019.117-.012-.092.01-.067.007-.02.002.013-.002h.008l.006-.002-.014.002-.154.02-.042.006-.121.016zm10.444-1.366h-.007c-1.06 0-2.039.348-2.828.936l.013-.009c2.942 1.401 5.259 3.718 6.624 6.577l.036.084a4.764 4.764 0 00-3.836-7.586zm-17.307 0a4.763 4.763 0 00-3.827 7.6l-.009-.013c1.401-2.942 3.718-5.259 6.577-6.624l.084-.036a4.703 4.703 0 00-2.815-.927h-.009z"/><path d="M11.078 9.834l.056.075 4.476 6.714 4.269-3.202a.8.8 0 011.037 1.215l-.077.065-4.961 3.721-.017.012-.003.002-.024.013-.024.017-.021.012-.004.002.074-.044a.797.797 0 01-.586.122l.005.001a.803.803 0 01-.471-.268l-.001-.001-.018-.02-.012-.016-.002-.002-.014-.021-.011-.015-4.945-7.418a.8.8 0 011.274-.964l.001.001z"/></svg>