<!-- Generated by IcoMoon.io -->
<svg version="1.1" xmlns="http://www.w3.org/2000/svg" width="32" height="32" viewBox="0 0 32 32">
<title>lens</title>
<path d="M31.2 30l-9.1-9c2-2.2 3.2-5.1 3.2-8.4 0.1-6.9-5.5-12.6-12.5-12.6s-12.5 5.7-12.5 12.6 5.6 12.5 12.5 12.5c2.9 0 5.6-1 7.7-2.7l9.1 9.1c0.2 0.2 0.5 0.3 0.8 0.3s0.6-0.1 0.8-0.3c0.4-0.4 0.4-1.1 0-1.5zM2.4 12.6c0-5.743 4.656-10.399 10.4-10.399s10.4 4.656 10.4 10.4c0 2.996-1.267 5.696-3.294 7.594l-0.006 0.005s-0.1 0-0.1 0.1c-1.8 1.7-4.3 2.7-7 2.7-5.7 0-10.4-4.7-10.4-10.4z"></path>
</svg>
