<svg
  xmlns="http://www.w3.org/2000/svg"
  viewBox="0 0 118.9 153.5"
  aria-hidden="true"
>
  <path
    d="M109.6 76.5l-8.1-.1V40.1c0-20.7-16.8-37.5-37.5-37.5h-8.6c-20.7 0-37.5 16.8-37.5 37.5v36.3H8.7c-3.4 0-6.2 2.8-6.2 6.2v62.7c0 3.4 2.8 6.2 6.2 6.2h102c3.4 0 6.2-2.8 6.2-6.2V83c-.3-4.5-3.3-6.4-7.3-6.5zm-24.8-.1H34.6V40.1c0-11.5 9.3-20.8 20.8-20.8h8.5c11.5 0 20.8 9.3 20.8 20.8v36.3h.1z"
    fill="#9acc33"
  ></path>
  <path
    d="M42.8 124c0 2-.5 3.8-1.6 5.4-1 1.6-2.6 2.9-4.6 3.8-2 .9-4.4 1.4-7.1 1.4-3.3 0-6-.6-8.1-1.9-1.5-.9-2.7-2.1-3.7-3.6-.9-1.5-1.4-2.9-1.4-4.4 0-.8.3-1.5.9-2.1.6-.6 1.3-.9 2.2-.9.7 0 1.3.2 1.8.7.5.5.9 1.1 1.3 2 .4 1.1.9 1.9 1.4 2.7.5.7 1.2 1.3 2.1 1.8.9.5 2.1.7 3.5.7 2 0 3.6-.5 4.9-1.4 1.2-.9 1.9-2.1 1.9-3.5 0-1.1-.3-2-1-2.7-.7-.7-1.5-1.2-2.6-1.6-1.1-.4-2.5-.8-4.3-1.2-2.4-.6-4.4-1.2-6-2s-2.9-1.8-3.8-3.1c-.9-1.3-1.4-2.9-1.4-4.8 0-1.8.5-3.5 1.5-4.9 1-1.4 2.4-2.5 4.3-3.3 1.9-.8 4.1-1.1 6.7-1.1 2 0 3.8.3 5.3.8s2.7 1.2 3.7 2 1.7 1.7 2.2 2.6c.5.9.7 1.8.7 2.7 0 .8-.3 1.5-.9 2.2-.6.6-1.3 1-2.1 1s-1.4-.2-1.8-.6c-.4-.4-.8-1-1.3-1.9-.6-1.3-1.3-2.2-2.2-2.9-.8-.7-2.2-1.1-4.1-1.1-1.7 0-3.1.4-4.2 1.1s-1.6 1.7-1.6 2.8c0 .7.2 1.2.5 1.7.4.5.9.9 1.5 1.2s1.3.6 1.9.8c.7.2 1.7.5 3.2.9 1.9.4 3.6.9 5.1 1.5s2.8 1.2 3.9 1.9c1.1.8 1.9 1.7 2.5 2.9.5 1.3.8 2.7.8 4.4zm31 0c0 2-.5 3.8-1.6 5.4-1 1.6-2.6 2.9-4.6 3.8-2 .9-4.4 1.4-7.1 1.4-3.3 0-6-.6-8.1-1.9-1.5-.9-2.7-2.1-3.7-3.6-.9-1.5-1.4-2.9-1.4-4.4 0-.8.3-1.5.9-2.1.6-.6 1.3-.9 2.2-.9.7 0 1.3.2 1.8.7.5.5.9 1.1 1.3 2 .4 1.1.9 1.9 1.4 2.7.5.7 1.2 1.3 2.1 1.8.9.5 2.1.7 3.5.7 2 0 3.6-.5 4.9-1.4s1.9-2.1 1.9-3.5c0-1.1-.3-2-1-2.7s-1.5-1.2-2.6-1.6c-1.1-.4-2.5-.8-4.3-1.2-2.4-.6-4.4-1.2-6-2s-2.9-1.8-3.8-3.1c-.9-1.3-1.4-2.9-1.4-4.8 0-1.8.5-3.5 1.5-4.9 1-1.4 2.4-2.5 4.3-3.3 1.9-.8 4.1-1.1 6.7-1.1 2 0 3.8.3 5.3.8s2.7 1.2 3.7 2 1.7 1.7 2.2 2.6c.5.9.7 1.8.7 2.7 0 .8-.3 1.5-.9 2.2s-1.3 1-2.1 1-1.4-.2-1.8-.6c-.4-.4-.8-1-1.3-1.9-.6-1.3-1.3-2.2-2.2-2.9-.8-.7-2.2-1.1-4.1-1.1-1.7 0-3.1.4-4.2 1.1-1.1.8-1.6 1.7-1.6 2.8 0 .7.2 1.2.5 1.7.4.5.9.9 1.5 1.2.6.3 1.3.6 1.9.8.7.2 1.7.5 3.2.9 1.9.4 3.6.9 5.1 1.5 1.5.5 2.8 1.2 3.9 1.9 1.1.8 1.9 1.7 2.5 2.9.5 1.3.8 2.7.8 4.4zm12.3-19.8v24.2h13.7c1.1 0 1.9.3 2.5.8.6.5.9 1.2.9 2s-.3 1.5-.9 2c-.6.5-1.4.8-2.5.8H83.5c-1.5 0-2.5-.3-3.2-1-.6-.7-1-1.7-1-3.2v-25.7c0-1.4.3-2.4.9-3.1.6-.7 1.4-1 2.4-1s1.8.3 2.5 1 1 1.8 1 3.2z"
    fill="#fff"
  ></path>
</svg>