<svg version="1.1" xmlns="http://www.w3.org/2000/svg" viewBox="0 0 32 32">
<path d="M25.142 31.312c-0.174 0-0.354-0.048-0.535-0.144l-8.219-4.322c-0.192-0.101-0.626-0.101-0.819 0l-8.218 4.322c-0.447 0.234-0.909 0.168-1.174-0.146-0.126-0.15-0.262-0.418-0.189-0.844l1.57-9.152c0.039-0.23-0.086-0.616-0.253-0.779l-6.649-6.481c-0.303-0.295-0.414-0.654-0.306-0.985s0.409-0.556 0.827-0.617l9.189-1.335c0.231-0.034 0.559-0.272 0.662-0.481l4.109-8.327c0.187-0.379 0.494-0.596 0.842-0.596s0.656 0.217 0.843 0.596l4.109 8.326c0.103 0.209 0.431 0.447 0.663 0.481l9.189 1.335c0.418 0.061 0.719 0.286 0.826 0.617s-0.005 0.69-0.307 0.984l-6.648 6.482c-0.167 0.163-0.292 0.549-0.253 0.779l1.569 9.151c0.073 0.426-0.062 0.694-0.189 0.844-0.157 0.187-0.384 0.29-0.639 0.29zM15.98 25.637c0.344 0 0.676 0.075 0.934 0.21l7.878 4.143-1.504-8.773c-0.102-0.593 0.147-1.357 0.578-1.778l6.373-6.214-8.808-1.28c-0.596-0.087-1.246-0.559-1.512-1.098l-3.939-7.982-3.939 7.982c-0.266 0.54-0.916 1.012-1.512 1.099l-8.809 1.28 6.373 6.212c0.431 0.42 0.679 1.184 0.578 1.778l-1.505 8.774 7.878-4.143c0.258-0.135 0.59-0.21 0.935-0.21z"></path>
</svg>