<svg version="1.1" xmlns="http://www.w3.org/2000/svg" viewBox="0 0 32 32">
<path d="M15.633 1.809c0.191-0.387 0.503-0.387 0.694 0l4.244 8.599c0.191 0.387 0.696 0.754 1.122 0.816l9.491 1.379c0.427 0.062 0.523 0.359 0.214 0.66l-6.867 6.694c-0.309 0.301-0.502 0.895-0.429 1.32l1.621 9.452c0.073 0.425-0.18 0.608-0.561 0.408l-8.488-4.463c-0.382-0.201-1.006-0.201-1.388 0l-8.488 4.463c-0.382 0.201-0.634 0.017-0.561-0.408l1.621-9.452c0.073-0.425-0.12-1.019-0.429-1.32l-6.867-6.693c-0.309-0.301-0.212-0.598 0.215-0.66l9.49-1.379c0.427-0.062 0.932-0.429 1.123-0.816l4.244-8.599z"></path>
</svg>