<svg xmlns="http://www.w3.org/2000/svg" viewBox="0 0 32 32" class="icon"><path d="M15.133 19.44c-2.147 1.32-7.08-.027-7.08.4a8.267 8.267 0 008.254 8.736 8.267 8.267 0 008.253-8.759l.001.022c0-.427-.04-2.4-.107-2.827 0 0-6.533.733-9.32 2.427z"></path><path d="M20.24 8.12V4.84s1.067-2.973 1.067-3.493c0-1.347-1.48-1.333-1.48-1.333s-7-.053-7.36.067c-.44.12-.867.453-.867 1.253 0 1.573.867 3.493.867 3.493v3.227C7.5 9.699 3.98 14.3 3.98 19.724c0 6.775 5.492 12.267 12.267 12.267s12.267-5.492 12.267-12.267c0-5.35-3.424-9.899-8.201-11.577l-.086-.026zm-3.973 21.987h-.038c-5.729 0-10.373-4.644-10.373-10.373 0-4.765 3.213-8.78 7.592-9.996l.073-.017.96-.133V4.135s-1.28-1.427-1.28-2.2c0-.72 6.427-.693 6.427.093 0 .747-1.467 2.173-1.467 2.173l.04 5.453 1.253.187c4.219 1.38 7.213 5.28 7.213 9.88 0 5.729-4.644 10.373-10.373 10.373h-.041.002z"></path></svg>