<!-- Generated by IcoMoon.io -->
<svg version="1.1" xmlns="http://www.w3.org/2000/svg" viewBox="0 0 32 32">
<path d="M16 0c8.837 0 16 7.163 16 16s-7.163 16-16 16v0c-8.837 0-16-7.163-16-16s7.163-16 16-16v0zM16 3.429c-6.943 0-12.571 5.628-12.571 12.571s5.628 12.571 12.571 12.571v0c6.943 0 12.571-5.628 12.571-12.571s-5.628-12.571-12.571-12.571v0zM16.114 13.714c0.947 0 1.714 0.768 1.714 1.714v0 8c0 0.947-0.767 1.714-1.714 1.714v0h-0.686c-0.947 0-1.714-0.767-1.714-1.714v0-8c0-0.947 0.768-1.714 1.714-1.714v0zM15.771 6.857c1.136 0 2.057 0.921 2.057 2.057s-0.921 2.057-2.057 2.057v0c-1.136 0-2.057-0.921-2.057-2.057s0.921-2.057 2.057-2.057v0z"></path>
</svg>
