<!-- Generated by IcoMoon.io -->
<svg version="1.1" xmlns="http://www.w3.org/2000/svg" viewBox="0 0 32 32">
<title>tooltip-filled</title>
<path d="M16 0c8.837 0 16 7.163 16 16s-7.163 16-16 16v0c-8.837 0-16-7.163-16-16s7.163-16 16-16v0zM16.114 13.943h-0.686l-0.233 0.016c-0.841 0.119-1.481 0.834-1.481 1.698v0 8l0.016 0.233c0.119 0.841 0.834 1.481 1.698 1.481h0.686l0.233-0.016c0.841-0.119 1.481-0.834 1.481-1.698v0-8l-0.016-0.233c-0.119-0.841-0.834-1.481-1.698-1.481v0zM15.771 7.086c-1.136 0-2.057 0.921-2.057 2.057s0.921 2.057 2.057 2.057v0c1.136 0 2.057-0.921 2.057-2.057s-0.921-2.057-2.057-2.057v0z"></path>
</svg>
