<svg xmlns="http://www.w3.org/2000/svg" viewBox="0 0 32 32"><path d="M1.133 31.467h30.3V27.22l-7.567-9.42-7.98 3.313-6.1-7.227-4.74 1.653-3.92-5.833z"/><path d="M29.18 19.533l1.387-1.2-5.08-5.42-8.433 3.573-5.607-7.073L6.7 11.106 1.653 3.879l-.22 2.707 4.587 6.78 4.707-1.693 5.873 7.113 8.433-3.613z"/><path d="M30.72 14.68l-.487-.067c-.113 0-.227.067-.267.22l-.413 3.687c0 .153-.153.227-.267.193l-3.613-.833c-.113-.033-.267.08-.267.193l-.067.447c-.04.113.067.267.187.267l4.593 1.093c.113.033.267-.08.267-.193l.52-4.7c.04-.153-.073-.267-.187-.307z"/></svg>