<svg xmlns="http://www.w3.org/2000/svg" viewBox="0 0 120.7 41.7"><path d="M7.3 28.4v11.4H2V9h8c3.1 0 4.6 1.4 4.6 4.9v9.9c-.1 3.9-1.5 4.6-7.3 4.6zm1.8-14.5c0-.6-.4-1-.8-1h-1v11.4h.9c.4 0 .9-.3.9-.9v-9.5zm12.1 25.9h-5V15.3h4.5l.4.8c1.1-.8 2.1-1.1 3-1.1 2.1 0 3.5.8 3.5 4.6v5.7h-4.8v-5.6c0-.6-.3-1-.8-1-.4 0-.8.3-.8 1v20.1zm14.3-9.1h4.8V35c0 3.7-1.1 4.9-4.1 4.9h-2.7c-3.1 0-4.5-1.4-4.5-4.9V20c0-3.6 1.3-4.9 4.2-4.9h2.5c3.1 0 4.6 1.4 4.6 4.9v8.6H34v6.9c0 .6.3 1 .8 1 .4 0 .8-.3.8-1v-4.8zM34 25.4h1.6v-5.8c0-.6-.3-.9-.8-.9-.4 0-.8.3-.8.9v5.8zm13.2-11.8h-5V9h5v4.6zm-4.9 1.7h5v24.6h-5V15.3zm13 16.7c0-3.6-6.5-3.6-6.5-8.8V20c0-3.6 1.3-4.9 4.3-4.9h2.7c3.1 0 4.4 1.4 4.4 4.9v3.4h-4.8v-3.9c0-.6-.3-.9-.8-.9-.4 0-.8.3-.8.9v2.8c0 3.5 6.6 3.3 6.6 9.1v3.7c0 3.6-1.3 4.9-4.3 4.9h-2.7c-3.1 0-4.4-1.4-4.4-4.9v-4.2h4.8v4.6c0 .6.3.9.8.9.4 0 .8-.3.8-.9V32zm11.4 7.8h-5v-4.6h5v4.6zm1.9-20.2c0-3.8 1.6-4.6 3.6-4.6.9 0 2.1.4 2.9 1.2V9h5v30.8h-4.6l-.4-1c-.8.8-2 1.2-2.9 1.2-2.1 0-3.6-.8-3.6-4.7V19.6zm6.6.1c0-.6-.4-1-.8-1s-.8.3-.8 1v15.7c0 .6.3.9.8.9.4 0 .8-.3.8-.9V19.7zm13.3 11h4.8V35c0 3.7-1.1 4.9-4.1 4.9h-2.7c-3.1 0-4.5-1.4-4.5-4.9V20c0-3.6 1.3-4.9 4.2-4.9h2.5c3.1 0 4.6 1.4 4.6 4.9v8.6H87v6.9c0 .6.3 1 .8 1 .4 0 .8-.3.8-1v-4.8zM87 25.4h1.6v-5.8c0-.6-.3-.9-.8-.9-.4 0-.8.3-.8.9v5.8z" fill="#16385D"/><path fill="#E3077D" d="M112.9 12.7c-.2.1-.4.3-.7.3H97.1c-.2 0-.4-.2-.4-.4V1.7c0-.2.2-.4.4-.4h15.1c.2 0 .5.1.7.3l5.5 5.5c.1.1.1.4 0 .5l-5.5 5.1z"/><path fill="#9AC439" d="M112.7 26.4c-.2.1-.5.3-.7.3H97c-.2 0-.4-.2-.4-.4v-11c0-.2.2-.4.4-.4h15.1c.2 0 .5.1.7.3l5.8 5.5c.2.1.1.4 0 .5l-5.9 5.2z"/><path fill="#F8C210" d="M112.7 40c-.2.1-.5.3-.7.3H97c-.2 0-.4-.2-.4-.4V29c0-.2.2-.4.4-.4h15.1c.2 0 .5.1.7.3l5.6 5.5c.2.1.1.4 0 .5l-5.7 5.1z"/></svg>